<?xml version="1.0" encoding="UTF-8"?> <svg xmlns="http://www.w3.org/2000/svg" width="268" height="22" viewBox="0 0 268 22" fill="none"> <g clip-path="url(#clip0)"> <path d="M69.0443 0H64.2073V21.634H69.0443V0Z" fill="black"></path> <path d="M84.5389 0H79.7019V21.634H99.812V17.3441H84.5389V0Z" fill="black"></path> <path d="M111.607 0H106.77V21.634H126.88V17.3441H111.607V0Z" fill="black"></path> <path d="M154.04 10.53C155.433 9.67741 155.785 8.27431 155.785 7.07261V4.64569C155.785 3.0244 155.349 1.82605 154.493 1.08086C153.637 0.335672 152.422 0 150.8 0H143.214V4.21268H149.535C150.317 4.21268 150.612 4.35366 150.703 4.41408C150.794 4.4745 150.867 4.62219 150.867 5.19284V7.30756C150.867 7.84464 150.763 8.36493 149.525 8.36493H143.214V12.7589H149.535C150.394 12.7589 150.659 12.9603 150.733 13.0442C150.807 13.1281 151.022 13.4873 151.022 14.4406V15.7396C151.022 16.6862 150.827 16.9715 150.743 17.0823C150.659 17.1931 150.408 17.3643 149.535 17.3643H138.636V0H133.799V21.6374H149.575C154.805 21.6374 155.899 19.0896 155.899 16.938V14.4439C155.899 12.638 155.265 11.3121 154.04 10.53Z" fill="black"></path> <path d="M183.777 12.3896C185.089 12.0136 186.647 10.9495 186.647 8.02584V4.66913C186.647 3.04784 186.214 1.84949 185.358 1.1043C184.502 0.359109 183.283 0.0234375 181.665 0.0234375H164.66V4.1052H181.779V8.39509H164.66V21.644H169.497V12.6547H174.401L182.602 21.6373H189.909L180.672 12.638C182.79 12.5943 183.458 12.497 183.777 12.3896Z" fill="black"></path> <path d="M205.397 0L193.575 21.634H198.55L200.131 18.6734L201.168 16.6728H201.195L203.36 12.6179H203.35L207.556 4.63226L211.963 13.0207L207.619 13.0173L205.501 17.0655H214.074L216.481 21.634H221.899L209.865 0H205.397Z" fill="black"></path> <path d="M233.634 0H228.797V21.634H233.634V0Z" fill="black"></path> <path d="M263.445 0V12.2654C263.445 13.0408 263.465 13.776 263.509 14.4641C263.227 14.172 262.955 13.9069 262.686 13.6652L247.396 0H244.265V21.6374H248.83V8.7476C248.83 8.07626 248.83 7.43512 248.786 6.82755C249.011 7.06252 249.209 7.26058 249.394 7.4217L265.11 21.6374H268.01V0H263.445Z" fill="black"></path> <path d="M40.5524 10.3957L44.5469 7.73047L40.5322 10.3823L40.5524 10.3957Z" fill="black"></path> <path d="M45.0403 18.6098L49.5416 21.6342H57.8931L45.0403 13.3062V18.6098Z" fill="black"></path> <path d="M45.0404 7.40155L56.2518 0H48.6388L37.0279 7.96884V0H32.1909V21.634H37.0279V12.7522L40.5525 10.3957L40.5324 10.3823L44.547 7.73051L45.0404 7.3982V7.40155Z" fill="black"></path> <path d="M45.0403 7.39795L44.5469 7.73026L45.0403 7.40131V7.39795Z" fill="black"></path> <path d="M16.4413 8.36078H4.48805V4.21524V0.0361328C2.94396 0.143548 1.85303 0.529566 1.18169 1.21769C0.38279 2.03337 -0.0065918 3.43648 -0.0065918 5.50421C-0.0065918 9.12946 0.305584 10.17 0.540554 10.64C1.24546 12.0532 2.89026 12.7681 5.42122 12.7681H17.3376V17.34H0.00683792V21.6265H4.24301H4.6861H16.4346C18.4855 21.6265 19.8719 21.2271 20.6741 20.408C21.4764 19.589 21.8624 18.1892 21.8624 16.1215V13.8557C21.8624 11.8148 21.4764 10.4218 20.6808 9.59269C19.8853 8.76358 18.4923 8.36078 16.4413 8.36078Z" fill="black"></path> <path d="M17.267 4.21604V6.14279H21.6307V5.58557C21.6307 3.49433 21.2447 2.07446 20.4491 1.24535C19.6536 0.41624 18.2438 0 16.166 0H9.0061V4.21604H17.267Z" fill="black"></path> </g> <defs> <clipPath id="clip0"> <rect width="268" height="21.634" fill="white"></rect> </clipPath> </defs> </svg> 